<?xml version="1.0" encoding="UTF-8"?>
<!DOCTYPE svg PUBLIC "-//W3C//DTD SVG 1.1//EN" "http://www.w3.org/Graphics/SVG/1.1/DTD/svg11.dtd">
<!-- Creator: CorelDRAW X8 -->
<svg xmlns="http://www.w3.org/2000/svg" xml:space="preserve" width="210mm" height="297mm" version="1.1" style="shape-rendering:geometricPrecision; text-rendering:geometricPrecision; image-rendering:optimizeQuality; fill-rule:evenodd; clip-rule:evenodd"
viewBox="0 0 21000 29700"
 xmlns:xlink="http://www.w3.org/1999/xlink">
 <defs>
  <style type="text/css">
   <![CDATA[
    .fil0 {fill:#2B2A29}
   ]]>
  </style>
 </defs>
 <g id="Слой_x0020_1">
  <metadata id="CorelCorpID_0Corel-Layer"/>
  <path class="fil0" d="M7772 8071l796 0 7564 0c13,0 27,1 40,1l0 0c13,0 26,1 39,1 13,1 26,2 39,3 13,1 26,2 38,3 13,2 26,3 39,5 12,1 25,3 38,5l0 0c12,2 25,4 38,7l0 0c12,2 25,4 37,7 12,2 25,5 37,8l0 0c13,3 25,6 37,9 12,3 24,6 36,10l0 0c13,3 25,7 37,11 12,3 23,7 35,11l0 0c12,4 24,9 36,13l0 0c11,4 23,9 35,13 11,5 23,10 34,14l0 0c12,5 23,10 34,15 12,5 23,11 34,16l0 0c11,6 22,11 33,17 11,5 22,11 33,17 11,6 22,12 32,18 11,6 22,13 32,19l0 0c11,7 21,13 32,20 10,6 20,13 30,20l0 0c11,7 21,14 31,21 10,7 20,15 29,22l0 0c10,7 20,15 30,22 9,8 19,16 28,23l0 0c10,8 19,16 28,24 10,8 19,16 28,25 9,8 18,16 27,25l0 0c9,8 18,17 26,26l0 0c9,8 18,17 26,26 9,9 17,18 25,27 8,9 17,18 25,27l0 0c8,10 16,19 23,28 8,10 16,20 24,29l0 0c7,10 15,20 22,29 7,10 15,20 22,30 7,10 14,20 21,31 7,10 13,20 20,30 7,11 13,21 20,32 6,10 12,21 19,32l0 0c6,10 12,21 18,32 6,11 11,22 17,33 6,11 11,22 17,33 5,11 10,22 15,34l0 0c6,11 11,22 15,34 5,11 10,23 15,34 4,12 9,23 13,35 4,12 8,24 13,36l0 0c4,11 7,23 11,35 4,12 8,24 11,36 3,12 7,25 10,37 3,12 6,24 9,37 3,12 6,24 8,37 3,12 5,25 7,37 3,13 5,25 7,38 2,13 3,25 5,38 2,13 3,26 4,39 2,12 3,25 4,38 1,13 2,26 2,39 1,13 2,26 2,39 0,13 0,26 0,40l0 7900c0,13 0,26 0,39 0,13 -1,26 -2,39 0,13 -1,26 -2,39 -1,13 -2,26 -4,39 -1,13 -2,25 -4,38 -2,13 -3,26 -5,38 -2,13 -4,25 -7,38 -2,13 -4,25 -7,37 -2,13 -5,25 -8,38 -3,12 -6,24 -9,36 -3,13 -7,25 -10,37 -3,12 -7,24 -11,36 -4,12 -7,24 -11,36l0 0c-5,12 -9,23 -13,35 -4,12 -9,23 -13,35 -5,12 -10,23 -15,35 -4,11 -9,22 -15,34l0 0c-5,11 -10,22 -15,33 -6,12 -11,23 -17,34 -6,11 -11,22 -17,32 -6,11 -12,22 -18,33l0 0c-7,10 -13,21 -19,32 -7,10 -13,21 -20,31 -7,10 -13,21 -20,31 -7,10 -14,20 -21,30 -7,10 -15,20 -22,30 -7,10 -15,19 -22,29l0 0c-8,10 -16,19 -24,29 -7,9 -15,19 -23,28l0 0c-8,9 -17,18 -25,27 -8,10 -16,19 -25,27 -8,9 -17,18 -26,27l0 0c-8,8 -17,17 -26,25l0 0c-9,9 -18,17 -27,26 -9,8 -18,16 -28,24 -9,8 -18,16 -28,24l0 0c-9,8 -19,15 -28,23 -10,8 -20,15 -30,22l0 0c-9,8 -19,15 -29,22 -10,7 -20,14 -31,21l0 0c-10,7 -20,14 -30,21 -11,6 -21,13 -32,19l0 0c-10,7 -21,13 -32,19 -10,6 -21,12 -32,18 -11,6 -22,12 -33,18 -11,5 -22,11 -33,16l0 0c-11,6 -22,11 -34,16 -11,5 -22,10 -34,15l0 0c-11,5 -23,10 -34,14 -12,5 -24,9 -35,13l0 0c-12,5 -24,9 -36,13l0 0c-12,4 -23,8 -35,12 -12,3 -24,7 -37,10l0 0c-12,4 -24,7 -36,10 -12,4 -24,7 -37,9l0 0c-12,3 -25,6 -37,9 -12,2 -25,5 -37,7l0 0c-13,2 -26,4 -38,6l0 0c-13,2 -26,4 -38,5 -13,2 -26,4 -39,5 -12,1 -25,2 -38,3 -13,1 -26,2 -39,3 -13,0 -26,1 -39,1l0 0c-13,1 -27,1 -40,1l-4177 0 -6804 0c-842,0 -1532,-690 -1532,-1532l0 -2998 1 0 0 -431 1275 0c138,0 266,29 383,87 117,57 218,134 303,228 85,95 151,202 199,322 48,120 72,241 72,362 0,128 -22,251 -68,371 -45,120 -108,227 -190,320 -82,93 -181,168 -297,224 -116,57 -243,85 -381,85l-697 0 0 1430c0,255 105,488 274,658 170,169 402,274 658,274l6804 0 4177 0c256,0 489,-105 658,-274l8 -8 8 -9 7 -8 8 -8 8 -8 7 -9 7 -8c3,-3 5,-6 7,-9l8 -9 7 -8 6 -9 7 -9c3,-3 5,-6 7,-9l7 -9 0 0 6 -9 6 -10 7 -9 6 -9 6 -10 6 -10 0 0 6 -9 5 -10 0 0 6 -10 5 -10 0 0 6 -9 5 -10 5 -11 0 0 5 -10 0 0 5 -10 0 0c1,-3 3,-7 5,-10l0 0 4 -11 0 0 5 -10 0 0 4 -10 0 0 4 -11 0 0 4 -11 4 -10 0 0 4 -11 0 0 4 -11 4 -11 3 -10 0 0 4 -11 0 0 3 -11 0 0 3 -11 0 0 3 -11 0 0 3 -12 2 -11 0 0 3 -11 0 0 2 -11 0 0 3 -12 0 0 2 -11 0 0 2 -12 0 0 2 -11 0 0 1 -12 0 0c1,-4 1,-7 2,-11l1 -12 0 0 2 -12 0 0 1 -11 0 0 1 -12 0 -12 1 -12 0 0 1 -11 0 -12c0,-4 0,-8 0,-12 0,-4 0,-8 0,-12l0 -7900 0 -12 0 -12 0 -12 -1 -12 0 0 -1 -12c0,-4 0,-8 0,-12l-1 -11 -1 -12 -2 -12 0 0 -1 -11 -2 -12 0 0c0,-4 -1,-8 -1,-12l0 0 -2 -11 -2 -12 -2 -11 0 0 -3 -11 -2 -12 0 0c-1,-3 -2,-7 -3,-11l0 0 -2 -11 0 0 -3 -11 -3 -11 0 0 -3 -11 0 0 -3 -11 0 0 -4 -11 0 0 -3 -11 0 0 -4 -11 0 0 -4 -11 0 0 -4 -11 -4 -10 0 0c-1,-4 -2,-7 -4,-11l0 0 -4 -10 0 0 -4 -11c-5,-10 -9,-21 -14,-31l0 0 -5 -10 0 0 -5 -10 -5 -10 0 0 -5 -10 -6 -10 0 0 -5 -10 0 0 -6 -10 -5 -10 -6 -9 0 0 -6 -10 0 0 -6 -9 -6 -10 0 0 -7 -9 0 0 -6 -9 -6 -9 0 0 -7 -10 0 0 -7 -9 0 0c-6,-9 -13,-17 -20,-26l0 0 -8 -9 0 0c-19,-23 -39,-45 -60,-66 -21,-21 -43,-42 -66,-61l0 0 -9 -7 0 0c-9,-7 -18,-14 -27,-20l0 0 -9 -7 0 0 -9 -7 0 0 -9 -6 -9 -6 0 0 -9 -7 0 0 -10 -6 -9 -6 0 0 -10 -6 0 0 -10 -6c-3,-2 -6,-3 -9,-5l-10 -6 0 0 -10 -5 -10 -6 -10 -5 0 0 -10 -5 -10 -5 0 0 -10 -5 0 0c-11,-5 -21,-9 -31,-14l-11 -4 0 0 -10 -4 0 0 -11 -5 0 0 -11 -4 -10 -4 0 0 -11 -3 0 0 -11 -4 0 0 -11 -3 0 0 -11 -4 0 0 -11 -3 0 0 -11 -3 0 0 -11 -3 -11 -3 0 0 -11 -3 0 0 -12 -2 0 0 -11 -2 -11 -3 0 0 -12 -2 -11 -2 -12 -2 0 0 -11 -1 0 0c-4,-1 -8,-1 -12,-2l-11 -1 0 0 -12 -2 -12 -1 -11 -1 -12 -1 -12 0 0 0 -12 -1 -12 0 -12 0 -12 -1 -7564 0 -796 0c-256,0 -489,106 -658,275 -169,169 -274,402 -274,658l0 4471 0 0 0 2495 3 0 0 0 1534 0 0 512 -2118 0 0 -3007 1 0 0 -4717c118,-727 753,-1287 1512,-1287zm8692 8499l0 512 -2089 0 0 -3007 2050 0 0 512 -1465 0 0 725 1266 0 0 474 -1266 0 0 784 1504 0zm-5177 -1013c0,-183 33,-365 100,-544 66,-179 163,-340 290,-481 127,-141 282,-255 466,-343 183,-87 392,-131 627,-131 276,0 516,60 718,182 202,121 352,279 451,474l-449 310c-40,-85 -88,-156 -144,-214 -57,-58 -117,-104 -182,-138 -65,-34 -133,-59 -204,-74 -70,-16 -139,-23 -207,-23 -147,0 -275,29 -384,89 -108,59 -199,136 -271,230 -72,95 -126,202 -163,322 -37,120 -55,240 -55,358 0,133 21,261 64,384 42,123 102,231 180,324 77,93 171,168 279,224 109,57 228,85 358,85 68,0 139,-9 212,-25 73,-17 143,-44 210,-81 66,-37 128,-84 184,-142 56,-58 102,-128 136,-210l478 276c-48,113 -116,212 -205,298 -89,87 -189,159 -301,219 -112,59 -231,104 -358,135 -127,31 -251,47 -373,47 -214,0 -411,-45 -589,-136 -177,-90 -331,-208 -459,-354 -129,-145 -229,-310 -301,-495 -72,-185 -108,-374 -108,-566zm-1699 -1482l517 0 1144 3007 -602 0 -279 -749 -1051 0 -275 749 -602 0 1148 -3007zm674 1847l-415 -1182 -432 1182 847 0zm-6043 -1335l0 975 663 0c107,0 197,-44 269,-132 72,-87 108,-206 108,-356 0,-76 -11,-144 -34,-205 -22,-61 -52,-112 -89,-155 -36,-42 -80,-74 -129,-95 -49,-21 -100,-32 -150,-32l-638 0zm12170 -4333c-185,6 -345,57 -482,153 -136,96 -233,229 -289,397l0 1300 -273 0 0 -2090 257 0 0 501c78,-160 182,-286 313,-377 131,-91 272,-136 422,-136 21,0 38,1 52,4l0 248zm-2773 1890c-227,0 -397,-75 -508,-226 -111,-152 -166,-377 -166,-677l0 -1227 273 0 0 1179c0,474 162,711 485,711 80,0 159,-14 237,-41 78,-26 149,-65 215,-116 65,-51 124,-111 176,-180 52,-70 95,-149 127,-237l0 -1316 272 0 0 1737c0,75 33,112 97,112l0 241c-32,6 -58,8 -78,8 -21,0 -35,0 -43,0 -64,-2 -116,-25 -156,-68 -40,-43 -60,-100 -60,-173l0 -240c-91,163 -215,289 -371,379 -157,90 -323,134 -500,134zm-2151 0c-152,0 -291,-28 -417,-86 -126,-57 -235,-136 -327,-235 -92,-99 -164,-214 -215,-345 -51,-131 -76,-269 -76,-413 0,-147 26,-286 78,-417 52,-131 125,-246 217,-345 92,-99 201,-178 327,-237 126,-59 263,-88 413,-88 150,0 288,29 416,88 127,59 236,138 329,237 92,99 164,214 216,345 52,131 78,270 78,417 0,144 -25,282 -76,413 -51,131 -122,246 -214,345 -93,99 -202,178 -329,235 -128,58 -267,86 -420,86zm-758 -1075c0,118 20,227 60,327 40,100 94,189 163,265 68,76 148,136 240,178 93,43 191,65 295,65 105,0 203,-22 295,-67 92,-44 173,-104 243,-180 69,-76 124,-165 164,-267 41,-102 61,-211 61,-329 0,-115 -20,-224 -61,-327 -40,-103 -95,-193 -164,-269 -70,-76 -151,-136 -243,-181 -92,-44 -190,-66 -295,-66 -104,0 -202,22 -293,66 -91,45 -171,105 -240,183 -70,78 -125,168 -165,271 -40,103 -60,213 -60,331zm-2115 1677c22,3 42,5 62,6 20,2 40,2 59,2 48,0 86,-6 114,-20 28,-13 55,-43 82,-88 27,-46 57,-111 90,-197 34,-85 81,-200 143,-345l-911 -2090 281 0 774 1837 719 -1837 260 0 -1083 2696c-29,78 -78,145 -146,203 -69,57 -162,86 -279,86 -27,0 -52,-1 -77,-2 -24,-1 -53,-5 -88,-10l0 -241z"/>
 </g>
</svg>
